<?xml version="1.0"?>
<svg xmlns="http://www.w3.org/2000/svg" xmlns:xlink="http://www.w3.org/1999/xlink" version="1.1" id="Capa_1" x="0px" y="0px" viewBox="0 0 512 512" style="enable-background:new 0 0 512 512;" xml:space="preserve" width="512px" height="512px" class=""><g><path style="fill:#FFD05B" d="M512,256c0,42.162-10.198,81.951-28.254,117.029c-7.095,13.772-15.391,26.812-24.785,38.985  c-14.033,18.254-30.49,34.555-48.87,48.421C367.219,492.805,313.846,512,256,512s-111.219-19.195-154.091-51.566  c-18.38-13.866-34.837-30.166-48.87-48.421c-9.394-12.173-17.69-25.213-24.785-38.985C10.198,337.951,0,298.162,0,256  c0-25.799,3.814-50.698,10.919-74.177C42.715,76.601,140.413,0,256,0s213.285,76.601,245.081,181.823  C508.186,205.302,512,230.201,512,256z" data-original="#823264" class="" data-old_color="#ffd05b"/><path style="fill:#AA3C6E;" d="M412.876,156.876c0,25.836-6.25,50.22-17.314,71.714c-4.348,8.44-9.431,16.43-15.188,23.89  c-8.6,11.187-18.684,21.175-29.947,29.672c-26.273,19.837-58.98,31.6-94.427,31.6s-68.155-11.762-94.426-31.6  c-11.263-8.497-21.348-18.485-29.947-29.672c-5.756-7.46-10.841-15.451-15.188-23.89c-11.064-21.496-17.314-45.878-17.314-71.714  c0-15.809,2.337-31.068,6.692-45.455C125.3,46.941,185.169,0,256,0s130.7,46.941,150.184,111.421  C410.538,125.808,412.876,141.066,412.876,156.876z" data-original="#AA3C6E"/><g>
	<path style="fill:#965028;" d="M458.961,351.086v60.928c-14.033,18.254-30.49,34.555-48.87,48.421l-8.108-53.969l-8.328-55.38   H458.961z" data-original="#965028" class=""/>
	<path style="fill:#965028;" d="M118.345,351.086l-8.328,55.38l-8.108,53.969c-18.38-13.866-34.837-30.166-48.87-48.421v-60.928   H118.345z" data-original="#965028" class=""/>
</g><g>
	<polygon style="fill:#823214;" points="53.039,351.086 118.345,351.086 110.017,406.465 53.039,406.465  " data-original="#823214"/>
	<polygon style="fill:#823214;" points="458.961,351.086 458.961,406.465 401.983,406.465 393.655,351.086  " data-original="#823214"/>
</g><polygon style="fill:#F2F2F2;" points="508.179,174.432 365.356,174.432 384.597,206.376 488.938,206.376 " data-original="#F2F2F2"/><polygon style="fill:#D1D1D1;" points="365.356,174.432 384.597,206.376 405.072,206.376 398.106,174.432 " data-original="#D1D1D1"/><polygon style="fill:#F2F2F2;" points="146.644,174.432 3.821,174.432 23.062,206.376 127.403,206.376 " data-original="#F2F2F2"/><polygon style="fill:#D1D1D1;" points="3.821,174.432 23.062,206.376 43.538,206.376 36.571,174.432 " data-original="#D1D1D1"/><rect x="331.337" y="132.712" style="fill:#A0F6FA;" width="9.404" height="73.665" data-original="#A0F6FA"/><path style="fill:#FFDC64;" d="M336.037,156.225L336.037,156.225c-12.551,0-22.725-10.174-22.725-22.725V51.218h45.451v82.282  C358.763,146.05,348.588,156.225,336.037,156.225z" data-original="#FFDC64"/><path style="fill:#FAC855;" d="M336.038,156.223c-12.56,0-22.727-10.177-22.727-22.727V51.221h13.343v82.275  C326.655,146.045,330.855,156.223,336.038,156.223z" data-original="#FAC855"/><g>
	<path style="fill:#A0F6FA;" d="M321.253,201.674L321.253,201.674c0-2.597,2.105-4.702,4.702-4.702h20.165   c2.597,0,4.702,2.105,4.702,4.702l0,0c0,2.597-2.105,4.702-4.702,4.702h-20.165C323.357,206.376,321.253,204.271,321.253,201.674z" data-original="#A0F6FA"/>
	<rect x="313.313" y="51.221" style="fill:#A0F6FA;" width="45.451" height="24.994" data-original="#A0F6FA"/>
</g><rect x="313.313" y="51.221" style="fill:#50D1DD;" width="13.343" height="24.994" data-original="#50D1DD"/><rect x="171.259" y="132.712" style="fill:#A0F6FA;" width="9.404" height="73.665" data-original="#A0F6FA"/><path style="fill:#FFDC64;" d="M175.963,156.225L175.963,156.225c-12.551,0-22.725-10.174-22.725-22.725V51.218h45.451v82.282  C198.688,146.05,188.514,156.225,175.963,156.225z" data-original="#FFDC64"/><path style="fill:#FAC855;" d="M175.964,156.223c-12.56,0-22.727-10.177-22.727-22.727V51.221h13.343v82.275  C166.581,146.045,170.781,156.223,175.964,156.223z" data-original="#FAC855"/><g>
	<path style="fill:#A0F6FA;" d="M161.179,201.674L161.179,201.674c0-2.597,2.105-4.702,4.702-4.702h20.165   c2.597,0,4.702,2.105,4.702,4.702l0,0c0,2.597-2.105,4.702-4.702,4.702h-20.165C163.283,206.376,161.179,204.271,161.179,201.674z" data-original="#A0F6FA"/>
	<rect x="153.234" y="51.221" style="fill:#A0F6FA;" width="45.451" height="24.994" data-original="#A0F6FA"/>
</g><rect x="153.234" y="51.221" style="fill:#50D1DD;" width="13.343" height="24.994" data-original="#50D1DD"/><path style="fill:#FFE18D;" d="M280.252,83.874h-9.843c-2.764,0-5.005,2.241-5.005,5.005v117.497h19.853V88.879  C285.257,86.115,283.016,83.874,280.252,83.874z" data-original="#FFE18D"/><path style="fill:#FFDC64;" d="M279.291,83.874h-8.882c-2.765,0-5.005,2.241-5.005,5.005v117.497h8.882V88.879  C274.286,86.115,276.527,83.874,279.291,83.874z" data-original="#FFDC64"/><path style="fill:#FF6196;" d="M284.382,56.277l-9.051-9.051l-9.051,9.051c-4.999,4.999-4.999,13.103,0,18.102l0,0  c4.999,4.999,13.103,4.999,18.102,0l0,0C289.38,69.38,289.38,61.276,284.382,56.277z" data-original="#FF6196"/><path style="fill:#FFE18D;" d="M241.591,83.874h-9.843c-2.764,0-5.005,2.241-5.005,5.005v117.497h19.853V88.879  C246.596,86.115,244.355,83.874,241.591,83.874z" data-original="#FFE18D"/><path style="fill:#FFDC64;" d="M240.63,83.874h-8.882c-2.765,0-5.005,2.241-5.005,5.005v117.497h8.882V88.879  C235.624,86.115,237.866,83.874,240.63,83.874z" data-original="#FFDC64"/><path style="fill:#FF6196;" d="M245.72,56.277l-9.051-9.051l-9.051,9.051c-4.999,4.999-4.999,13.103,0,18.102l0,0  c4.999,4.999,13.103,4.999,18.102,0l0,0C250.719,69.38,250.719,61.276,245.72,56.277z" data-original="#FF6196"/><path style="fill:#F491BE" d="M512,205.333V256c0,22.256-2.842,43.844-8.182,64.439v0.01c-3.25,12.528-7.429,24.68-12.445,36.383  c-2.361,5.496-4.901,10.898-7.628,16.196H28.254c-2.591-5.047-5.026-10.177-7.283-15.412c-5.266-12.163-9.624-24.806-12.957-37.857  C2.779,299.374,0,278.016,0,256v-50.667H512z" data-original="#FFBE82" class="active-path" data-old_color="#F490BE"/><g>
	<path style="fill:#FF3000" d="M31.545,348.724c-4.43,3.783-7.973,6.75-10.574,8.892c-5.266-12.163-9.624-24.806-12.957-37.857   c4.911,1.912,7.784,6.677,7.784,6.677s6.719-11.149,17.157-6.196C44.272,325.611,42.6,339.257,31.545,348.724z" data-original="#FF965A" class="" data-old_color="#FF2800"/>
	<path style="fill:#FF3000" d="M96.083,361.817c0,0-5.54-4.356-15.745-13.09c-11.056-9.465-12.726-23.113-1.415-28.481   c10.437-4.953,17.159,6.191,17.159,6.191s6.722-11.145,17.159-6.191c11.311,5.368,9.641,19.017-1.415,28.481   C101.623,357.461,96.083,361.817,96.083,361.817z" data-original="#FF965A" class="" data-old_color="#FF2800"/>
	<path style="fill:#FF3000" d="M176.365,361.817c0,0-5.54-4.356-15.745-13.09c-11.056-9.465-12.726-23.113-1.415-28.481   c10.437-4.953,17.159,6.191,17.159,6.191s6.722-11.145,17.159-6.191c11.311,5.368,9.641,19.017-1.415,28.481   C181.905,357.461,176.365,361.817,176.365,361.817z" data-original="#FF965A" class="" data-old_color="#FF2800"/>
	<path style="fill:#FF3000" d="M256.648,361.817c0,0-5.54-4.356-15.745-13.09c-11.056-9.465-12.726-23.113-1.415-28.481   c10.437-4.953,17.159,6.191,17.159,6.191s6.722-11.145,17.159-6.191c11.311,5.368,9.641,19.017-1.415,28.481   C262.189,357.461,256.648,361.817,256.648,361.817z" data-original="#FF965A" class="" data-old_color="#FF2800"/>
	<path style="fill:#FF3000" d="M336.932,361.817c0,0-5.54-4.356-15.745-13.09c-11.056-9.465-12.726-23.113-1.415-28.481   c10.438-4.953,17.159,6.191,17.159,6.191s6.722-11.145,17.159-6.191c11.311,5.368,9.641,19.017-1.415,28.481   C342.472,357.461,336.932,361.817,336.932,361.817z" data-original="#FF965A" class="" data-old_color="#FF2800"/>
	<path style="fill:#FF3000" d="M417.214,361.817c0,0-5.54-4.356-15.745-13.09c-11.056-9.465-12.726-23.113-1.415-28.481   c10.438-4.953,17.159,6.191,17.159,6.191s6.722-11.145,17.159-6.191c11.311,5.368,9.641,19.017-1.415,28.481   C422.754,357.461,417.214,361.817,417.214,361.817z" data-original="#FF965A" class="" data-old_color="#FF2800"/>
	<path style="fill:#FF3000" d="M503.818,320.449c-3.25,12.528-7.429,24.68-12.445,36.383c-2.487-2.058-5.705-4.765-9.624-8.108   c-11.055-9.467-12.727-23.113-1.411-28.484c10.439-4.953,17.157,6.196,17.157,6.196S499.806,322.612,503.818,320.449z" data-original="#FF965A" class="" data-old_color="#FF2800"/>
	<path style="fill:#FF3000" d="M31.545,252.594c-10.209,8.735-15.747,13.093-15.747,13.093s-5.538-4.357-15.747-13.093   c-0.021-0.01-0.031-0.031-0.052-0.042v-28.996c9.655-3.438,15.799,6.75,15.799,6.75s6.719-11.149,17.157-6.196   C44.272,229.48,42.6,243.127,31.545,252.594z" data-original="#FF965A" class="" data-old_color="#FF2800"/>
	<path style="fill:#FF3000" d="M96.083,265.686c0,0-5.54-4.356-15.745-13.09c-11.056-9.465-12.726-23.113-1.415-28.481   c10.437-4.953,17.159,6.192,17.159,6.192s6.722-11.145,17.159-6.192c11.311,5.368,9.641,19.017-1.415,28.481   C101.623,261.33,96.083,265.686,96.083,265.686z" data-original="#FF965A" class="" data-old_color="#FF2800"/>
	<path style="fill:#FF3000" d="M176.365,265.686c0,0-5.54-4.356-15.745-13.09c-11.056-9.465-12.726-23.113-1.415-28.481   c10.437-4.953,17.159,6.192,17.159,6.192s6.722-11.145,17.159-6.192c11.311,5.368,9.641,19.017-1.415,28.481   C181.905,261.33,176.365,265.686,176.365,265.686z" data-original="#FF965A" class="" data-old_color="#FF2800"/>
	<path style="fill:#FF3000" d="M256.648,265.686c0,0-5.54-4.356-15.745-13.09c-11.056-9.465-12.726-23.113-1.415-28.481   c10.437-4.953,17.159,6.192,17.159,6.192s6.722-11.145,17.159-6.192c11.311,5.368,9.641,19.017-1.415,28.481   C262.189,261.33,256.648,265.686,256.648,265.686z" data-original="#FF965A" class="" data-old_color="#FF2800"/>
	<path style="fill:#FF3000" d="M336.932,265.686c0,0-5.54-4.356-15.745-13.09c-11.056-9.465-12.726-23.113-1.415-28.481   c10.438-4.953,17.159,6.192,17.159,6.192s6.722-11.145,17.159-6.192c11.311,5.368,9.641,19.017-1.415,28.481   C342.472,261.33,336.932,265.686,336.932,265.686z" data-original="#FF965A" class="" data-old_color="#FF2800"/>
	<path style="fill:#FF3000" d="M417.214,265.686c0,0-5.54-4.356-15.745-13.09c-11.056-9.465-12.726-23.113-1.415-28.481   c10.438-4.953,17.159,6.192,17.159,6.192s6.722-11.145,17.159-6.192c11.311,5.368,9.641,19.017-1.415,28.481   C422.754,261.33,417.214,265.686,417.214,265.686z" data-original="#FF965A" class="" data-old_color="#FF2800"/>
	<path style="fill:#FF3000" d="M512,223.159v30.501c-9.415,8.025-14.503,12.027-14.503,12.027s-5.538-4.357-15.747-13.093   c-11.055-9.467-12.727-23.113-1.411-28.484c10.439-4.953,17.157,6.196,17.157,6.196S503.087,221.027,512,223.159z" data-original="#FF965A" class="" data-old_color="#FF2800"/>
	<path style="fill:#FF3000" d="M61.198,313.751c0,0-5.54-4.356-15.745-13.09c-11.056-9.465-12.726-23.113-1.415-28.481   c10.437-4.953,17.159,6.192,17.159,6.192s6.722-11.145,17.159-6.192c11.311,5.368,9.641,19.017-1.415,28.481   C66.738,309.395,61.198,313.751,61.198,313.751z" data-original="#FF965A" class="" data-old_color="#FF2800"/>
	<path style="fill:#FF3000" d="M141.48,313.751c0,0-5.54-4.356-15.745-13.09c-11.056-9.465-12.726-23.113-1.415-28.481   c10.437-4.953,17.159,6.192,17.159,6.192s6.722-11.145,17.159-6.192c11.311,5.368,9.641,19.017-1.415,28.481   C147.02,309.395,141.48,313.751,141.48,313.751z" data-original="#FF965A" class="" data-old_color="#FF2800"/>
	<path style="fill:#FF3000" d="M221.763,313.751c0,0-5.54-4.356-15.745-13.09c-11.056-9.465-12.726-23.113-1.415-28.481   c10.437-4.953,17.159,6.192,17.159,6.192s6.722-11.145,17.159-6.192c11.311,5.368,9.641,19.017-1.415,28.481   C227.304,309.395,221.763,313.751,221.763,313.751z" data-original="#FF965A" class="" data-old_color="#FF2800"/>
	<path style="fill:#FF3000" d="M302.047,313.751c0,0-5.54-4.356-15.745-13.09c-11.056-9.465-12.726-23.113-1.415-28.481   c10.438-4.953,17.159,6.192,17.159,6.192s6.722-11.145,17.159-6.192c11.311,5.368,9.641,19.017-1.415,28.481   C307.587,309.395,302.047,313.751,302.047,313.751z" data-original="#FF965A" class="" data-old_color="#FF2800"/>
	<path style="fill:#FF3000" d="M382.329,313.751c0,0-5.54-4.356-15.745-13.09c-11.056-9.465-12.726-23.113-1.415-28.481   c10.438-4.953,17.159,6.192,17.159,6.192s6.722-11.145,17.159-6.192c11.311,5.368,9.641,19.017-1.415,28.481   C387.869,309.395,382.329,313.751,382.329,313.751z" data-original="#FF965A" class="" data-old_color="#FF2800"/>
	<path style="fill:#FF3000" d="M462.612,313.751c0,0-5.54-4.356-15.745-13.09c-11.056-9.465-12.726-23.113-1.415-28.481   c10.438-4.953,17.159,6.192,17.159,6.192s6.722-11.145,17.159-6.192c11.311,5.368,9.641,19.017-1.415,28.481   C468.153,309.395,462.612,313.751,462.612,313.751z" data-original="#FF965A" class="" data-old_color="#FF2800"/>
</g></g> </svg>
