<?xml version="1.0"?>
<svg xmlns="http://www.w3.org/2000/svg" xmlns:xlink="http://www.w3.org/1999/xlink" version="1.1" id="Capa_1" x="0px" y="0px" viewBox="0 0 511.999 511.999" style="enable-background:new 0 0 511.999 511.999;" xml:space="preserve" width="512px" height="512px" class=""><g><g>
	<circle style="fill:#5D5360" cx="432.36" cy="476.44" r="24.05" data-original="#5D5360" class=""/>
	<circle style="fill:#5D5360" cx="159.81" cy="476.44" r="24.05" data-original="#5D5360" class=""/>
</g><path style="fill:#EDB00D" d="M56.284,82.966L12.196,38.877c-6.261-6.261-6.261-16.412,0-22.673l0,0  c6.261-6.261,16.412-6.261,22.673,0l44.089,44.089c6.261,6.261,6.261,16.412,0,22.673l0,0  C72.697,89.227,62.545,89.227,56.284,82.966z" data-original="#E6646E" class="active-path" data-old_color="#FFBA00"/><path style="fill:#EDEBED;" d="M118.746,104.852c-3.961-0.36-7.029,3.403-5.879,7.211l54.521,180.539  c1.013,3.355,4.162,5.699,7.657,5.699c0.2,0,0.401-0.007,0.603-0.022l278.931-20.41c2.656-0.194,4.81-2.229,5.155-4.871  l16.931-129.805c0.412-3.158-1.885-6.026-5.057-6.314L118.746,104.852z" data-original="#EDEBED" class=""/><path d="M510.354,111.029c-1.275-1.592-3.145-2.597-5.176-2.781L91.096,70.665c-0.232-5.7-2.493-11.333-6.835-15.675L40.172,10.9  c-4.444-4.444-10.354-6.893-16.64-6.893S11.337,6.456,6.893,10.9C2.448,15.345,0,21.255,0,27.541s2.448,12.195,6.893,16.64  l44.089,44.088c4.444,4.445,10.354,6.893,16.64,6.893c2.365,0,4.677-0.347,6.878-1.016l62.687,207.577  c5.105,16.904,20.392,28.13,37.79,28.13c0.984,0,1.977-0.036,2.973-0.109L461.443,309c14.865-1.087,27.053-12.604,28.981-27.384  l21.512-164.928C512.201,114.665,511.629,112.622,510.354,111.029z M490.624,164.112l-53.481-1.948l3.597-44.703l55.314,5.021  L490.624,164.112z M482.213,228.597l-50.505,1.123l4.232-52.589l52.736,1.921L482.213,228.597z M354.075,301.816l1.475-55.4  l59.873-1.331l-4.229,52.551L354.075,301.816z M285.993,306.797l-3.621-58.756l58.163-1.292l-1.495,56.167L285.993,306.797z   M221.045,311.55l-11.531-61.889l57.849-1.286l3.668,59.517L221.045,311.55z M111.662,165.318L179,167.771l12.536,67.286  l-58.421,1.298L111.662,165.318z M194.362,168.331l68.222,2.485l3.857,62.576l-59.71,1.327L194.362,168.331z M258.275,100.9  l3.382,54.872l-70.111-2.554L180.483,93.84L258.275,100.9z M342.878,158.73l-66.159-2.41l-3.331-54.048l70.821,6.428L342.878,158.73  z M359.179,110.059l66.622,6.047l-3.662,45.512l-64.27-2.341L359.179,110.059z M342.479,173.726l-1.544,58.011l-59.486,1.322  l-3.802-61.694L342.479,173.726z M355.949,231.403l1.521-57.131l63.465,2.312l-4.303,53.471L355.949,231.403z M61.588,77.662  L17.499,33.573C15.887,31.962,15,29.819,15,27.541s0.887-4.422,2.499-6.034c1.612-1.611,3.754-2.499,6.033-2.499  s4.421,0.888,6.033,2.499l44.089,44.089c3.327,3.327,3.327,8.74,0,12.066c-1.612,1.611-3.754,2.499-6.033,2.499  C65.342,80.161,63.2,79.274,61.588,77.662z M164.963,92.431l11.221,60.228l-69.106-2.518l-19.55-64.739L164.963,92.431z   M176.854,314.783c-11.56,0.843-21.959-6.309-25.308-17.397l-13.93-46.127l56.704-1.26l11.673,62.653L176.854,314.783z   M460.349,294.04l-34.017,2.489l4.166-51.779l49.752-1.106l-4.7,36.032C474.54,287.428,468.146,293.469,460.349,294.04z" data-original="#000000" class="" style="fill:#000000"/><path d="M456.403,427.831c4.142,0,7.5-3.358,7.5-7.5s-3.358-7.5-7.5-7.5H144.04c-2.919,0-5.516-1.398-7.123-3.835  c-1.607-2.438-1.87-5.374-0.72-8.058l21.185-49.432c1.632-3.807-0.132-8.216-3.939-9.848c-3.807-1.632-8.216,0.131-9.848,3.939  l-21.185,49.431c-3.125,7.293-2.383,15.601,1.984,22.225c4.367,6.623,11.711,10.578,19.646,10.578h8.267v17.973  c-13.786,3.375-24.048,15.829-24.048,30.64c0,17.396,14.152,31.549,31.548,31.549s31.548-14.153,31.548-31.549  c0-14.811-10.262-27.265-24.048-30.64v-17.973h257.548v17.973c-13.786,3.375-24.048,15.829-24.048,30.64  c0,17.396,14.152,31.549,31.548,31.549s31.548-14.153,31.548-31.549c0-14.811-10.262-27.265-24.048-30.64v-17.973L456.403,427.831  L456.403,427.831z M176.355,476.443c0,9.125-7.423,16.549-16.548,16.549s-16.548-7.424-16.548-16.549s7.423-16.548,16.548-16.548  S176.355,467.319,176.355,476.443z M448.903,476.443c0,9.125-7.423,16.549-16.548,16.549s-16.548-7.424-16.548-16.549  s7.423-16.548,16.548-16.548S448.903,467.319,448.903,476.443z" data-original="#000000" class="" style="fill:#000000"/></g> </svg>
