<?xml version="1.0" encoding="iso-8859-1"?>
<!-- Generator: Adobe Illustrator 19.0.0, SVG Export Plug-In . SVG Version: 6.00 Build 0)  -->
<svg version="1.1" id="Capa_1" xmlns="http://www.w3.org/2000/svg" xmlns:xlink="http://www.w3.org/1999/xlink" x="0px" y="0px"
	 viewBox="0 0 511.999 511.999" style="enable-background:new 0 0 511.999 511.999;" xml:space="preserve">
<circle style="fill:#FFD15C;" cx="255.998" cy="258.983" r="253.014"/>
<path style="fill:#34ABE0;" d="M341.55,229.016l23.919,70.342H143.092l27.354-70.342c0-5.486,3.082-10.503,7.97-12.984
	l39.884-20.241l37.696-4.829l5.223,0.669h0.003l32.473,4.16l39.881,20.241C338.468,218.513,341.55,223.53,341.55,229.016z"/>
<path style="fill:#279FC9;" d="M261.219,191.631l-32.466,4.16l-39.884,20.241c-4.889,2.482-7.97,7.499-7.97,12.984v70.342h-10.452
	v-70.342c0-5.486,3.082-10.503,7.97-12.984l39.884-20.241l37.696-4.829L261.219,191.631z"/>
<rect x="230.418" y="167.144" style="fill:#F9D6B9;" width="52.906" height="34.017"/>
<g>
	<circle style="fill:#E5BFA3;" cx="204.528" cy="109.87" r="16.35"/>
	<circle style="fill:#E5BFA3;" cx="307.468" cy="109.87" r="16.35"/>
	<path style="fill:#E5BFA3;" d="M244.362,167.146L244.362,167.146h-13.949l0,0h-0.001v14.385h0.001v14.233h13.949l0,0
		c0-4.819,4.013-8.693,8.827-8.467c0.93,0.043,1.866,0.066,2.808,0.066c9.86,0,19.157-2.425,27.324-6.707v-13.51h-38.959V167.146z"
		/>
</g>
<path style="fill:#F9D6B9;" d="M314.899,35.071H197.096v87.568c0,32.53,26.371,58.902,58.902,58.902l0,0
	c32.53,0,58.902-26.371,58.902-58.902V35.071H314.899z"/>
<path style="fill:#E5BFA3;" d="M307.948,13.29c-0.179-0.034-0.359-0.058-0.541-0.074c-1.706-0.151-3.386,0.491-4.633,1.665
	c-0.891,0.84-2.031,1.894-2.807,2.536c-9.942,8.234-22.547,12.728-35.577,12.728h-50.202c-5.505,0-10.579,1.836-14.65,4.926h-2.442
	v2.121c-4.424,4.394-7.165,10.482-7.165,17.21v36.084c0,4.291,3.091,7.854,7.165,8.592v23.561c0,32.53,26.371,58.902,58.902,58.902
	l0,0c2.196,0,4.361-0.124,6.495-0.358c-29.474-3.233-52.406-28.208-52.406-58.543V87.884c0-5.435,4.231-10.036,9.662-10.25
	c0.17-0.007,0.343-0.01,0.515-0.01l0,0c5.543,0,10.936,1.861,15.255,5.335c5.605,4.509,12.784,8.151,20.48,7.206
	c15.327-1.881,14.875-12.005,20.48-16.513c4.319-3.474,9.713-5.335,15.255-5.335h0.239c7.084,0,12.616-2.646,12.626,4.44
	c0.007,4.77,3.764,26.534,8.534,26.641c2.489,0.056,4.753-0.93,6.376-2.557c1.58-1.58,2.556-3.763,2.556-6.176V30.542
	C322.065,22.164,316.179,14.849,307.948,13.29z"/>
<path style="fill:#5C5E70;" d="M322.065,26.062v75.075c0,2.412-0.977,4.596-2.556,6.176c-1.624,1.628-3.888,2.613-6.376,2.556
	c-4.775-0.107-8.534-4.133-8.534-8.908V86.009c0-3.554-1.44-6.767-3.768-9.096s-5.543-3.768-9.096-3.768
	c-5.543,0-10.935,1.861-15.257,5.336c-5.602,4.507-12.724,7.206-20.48,7.206c-7.753,0-14.875-2.7-20.477-7.206
	c-0.74-0.597-1.514-1.144-2.314-1.642c-0.009-0.009-0.021-0.014-0.03-0.021c-1.523-0.95-3.142-1.72-4.826-2.308
	c-2.583-0.898-5.315-1.365-8.087-1.365c-7.104,0-12.864,5.76-12.864,12.864v15.131c0,2.41-0.977,4.596-2.559,6.176
	c-1.58,1.58-3.763,2.556-6.176,2.556c-4.823,0-8.732-3.909-8.732-8.735V49.923c0-13.396,10.861-24.257,24.257-24.257h50.202
	c13.029,0,25.634-4.494,35.576-12.727c0.777-0.642,1.917-1.696,2.807-2.535c1.249-1.176,2.93-1.816,4.635-1.667
	c0.179,0.014,0.361,0.039,0.54,0.074C316.178,10.369,322.065,17.686,322.065,26.062z"/>
<path style="fill:#E5BFA3;" d="M243.213,107.069c-0.328,2.715-2.724,4.707-5.459,4.707h-14.21c-1.484,0-2.828-0.6-3.801-1.574
	c-1.114-1.117-1.744-2.723-1.534-4.47c0.328-2.715,2.724-4.707,5.459-4.707h14.21c1.484,0,2.828,0.6,3.801,1.574
	C242.795,103.718,243.425,105.324,243.213,107.069z"/>
<path style="fill:#FFFFFF;" d="M243.213,110.839c-0.328,2.715-2.724,4.707-5.459,4.707h-14.21c-1.484,0-2.828-0.6-3.801-1.574
	c-1.114-1.117-1.744-2.723-1.534-4.47c0.328-2.715,2.724-4.707,5.459-4.707h14.21c1.484,0,2.828,0.6,3.801,1.574
	C242.795,107.488,243.425,109.093,243.213,110.839z"/>
<path style="fill:#E5BFA3;" d="M292.229,101.027h-14.333c-2.969,0-5.375,2.406-5.375,5.375l0,0c0,2.969,2.406,5.375,5.375,5.375
	h14.333c2.969,0,5.375-2.406,5.375-5.375l0,0C297.604,103.433,295.197,101.027,292.229,101.027z"/>
<path style="fill:#FFFFFF;" d="M292.229,104.796h-14.333c-2.969,0-5.375,2.406-5.375,5.375l0,0c0,2.969,2.406,5.375,5.375,5.375
	h14.333c2.969,0,5.375-2.406,5.375-5.375l0,0C297.604,107.203,295.197,104.796,292.229,104.796z"/>
<path style="fill:#E5BFA3;" d="M296.878,90.289h-23.633c-1.673,0-3.03,1.356-3.03,3.03l0,0c0,1.673,1.356,3.03,3.03,3.03h23.633
	c1.673,0,3.03-1.356,3.03-3.03l0,0C299.908,91.645,298.551,90.289,296.878,90.289z"/>
<g>
	<path style="fill:#41B787;" d="M237.86,108.397c0,3.948-3.201,7.149-7.149,7.149s-7.149-3.201-7.149-7.149
		c0-1.314,0.355-2.545,0.977-3.601h12.345C237.505,105.853,237.86,107.084,237.86,108.397z"/>
	<path style="fill:#41B787;" d="M292.211,108.397c0,3.948-3.201,7.149-7.149,7.149c-3.948,0-7.149-3.201-7.149-7.149
		c0-1.314,0.355-2.545,0.977-3.601h12.345C291.856,105.853,292.211,107.084,292.211,108.397z"/>
</g>
<g>
	<path style="fill:#E5BFA3;" d="M218.996,90.289c-1.668,0-3.099,1.305-3.129,2.973c-0.031,1.699,1.337,3.087,3.029,3.087h16.603
		c6.592,0,11.936,5.344,11.936,11.936v29.573h3.008c3.863,0,6.997-3.132,6.997-6.997V99.403c0-5.034-4.081-9.116-9.116-9.116
		h-29.328V90.289z"/>
	<path style="fill:#E5BFA3;" d="M266.102,147.756c-6.561,2.162-13.647,2.162-20.209,0c-1.754-0.571-3.757,0.114-4.536,1.755l0,0
		c-0.779,1.636,0.297,3.769,2.481,4.486c7.896,2.602,16.424,2.602,24.32,0c2.182-0.718,3.259-2.851,2.481-4.486l0,0
		C269.859,147.867,267.856,147.185,266.102,147.756z"/>
	<path style="fill:#E5BFA3;" d="M259.556,160.938h-7.115c-1.814,0-3.285,1.471-3.285,3.285l0,0c0,1.814,1.471,3.285,3.285,3.285
		h7.115c1.814,0,3.285-1.471,3.285-3.285l0,0C262.84,162.409,261.369,160.938,259.556,160.938z"/>
</g>
<polygon style="fill:#FFD15C;" points="268.822,299.357 243.174,299.357 251.89,219.382 260.102,219.382 "/>
<path style="fill:#EDBB4C;" d="M258.932,221.472h-5.869c-3.492,0-6.323-2.831-6.323-6.323v-7.661c0-3.492,2.831-6.323,6.323-6.323
	h5.869c3.492,0,6.323,2.831,6.323,6.323v7.661C265.255,218.641,262.425,221.472,258.932,221.472z"/>
<g>
	<path style="fill:#279FC9;" d="M226.893,185.11l26.109,11.189c2.691,1.154,3.794,4.381,2.372,6.94l-8.456,15.22
		c-1.64,2.953-5.694,3.425-7.969,0.929l-21.518-23.599c-1.984-2.176-1.636-5.592,0.745-7.324l3.863-2.81
		C223.449,184.632,225.292,184.424,226.893,185.11z"/>
	<path style="fill:#279FC9;" d="M285.103,185.11L258.994,196.3c-2.691,1.154-3.794,4.381-2.372,6.94l8.456,15.22
		c1.64,2.953,5.694,3.425,7.969,0.929l21.518-23.599c1.984-2.176,1.636-5.592-0.745-7.324l-3.863-2.81
		C288.547,184.632,286.704,184.424,285.103,185.11z"/>
	<polygon style="fill:#279FC9;" points="312.289,259.01 295.118,265.281 277.648,259.01 277.648,247.363 312.289,247.363 	"/>
	<polygon style="fill:#279FC9;" points="234.347,259.01 217.176,265.281 199.707,259.01 199.707,247.363 234.347,247.363 	"/>
</g>
<path style="fill:#FF525D;" d="M170.441,229.016v70.338H6.199c-2.117-13.146-3.212-26.623-3.212-40.369
	c0-14.489,1.219-28.699,3.563-42.527c0.248-0.155,0.506-0.289,0.764-0.423l39.883-20.241l37.694-4.833l5.226,0.671l32.479,4.162
	l39.873,20.241C167.364,218.513,170.441,223.532,170.441,229.016z"/>
<path style="fill:#EF4152;" d="M90.117,191.632l-32.468,4.162l-39.883,20.241c-4.895,2.478-7.973,7.497-7.973,12.981v70.338H6.199
	c-2.117-13.146-3.212-26.623-3.212-40.369c0-14.489,1.219-28.699,3.563-42.527c0.248-0.155,0.506-0.289,0.764-0.423l39.883-20.241
	l37.694-4.833L90.117,191.632z"/>
<rect x="59.308" y="167.144" style="fill:#F9D6B9;" width="52.906" height="34.017"/>
<g>
	<circle style="fill:#E5BFA3;" cx="27.782" cy="109.87" r="16.35"/>
	<circle style="fill:#E5BFA3;" cx="142.007" cy="109.87" r="16.35"/>
	<path style="fill:#E5BFA3;" d="M73.258,167.146L73.258,167.146H59.309l0,0h-0.001v14.385h0.001v14.233h13.949l0,0
		c0-4.819,4.013-8.693,8.827-8.467c0.93,0.043,1.866,0.066,2.808,0.066c9.86,0,19.157-2.425,27.324-6.707v-13.51H73.258V167.146z"/>
</g>
<path style="fill:#F9D6B9;" d="M143.795,63.2L25.992,56.929v65.71c0,32.53,26.371,58.902,58.902,58.902l0,0
	c32.53,0,58.902-26.371,58.902-58.902V63.2z"/>
<path style="fill:#E5BFA3;" d="M93.286,30.145l-36.085,3.124c-5.505,0-10.579,1.836-14.65,4.926h-2.442v2.121
	c-4.424,4.394-7.165,10.482-7.165,17.21l-9.257,32.96c0,4.291-1.769,7.854,2.306,8.592v23.561c0,32.53,26.371,58.902,58.902,58.902
	l0,0c2.196,0,4.361-0.124,6.495-0.358c-29.474-3.233-52.407-28.208-52.407-58.543V87.884c0-5.435,4.231-10.036,9.662-10.25
	c0.17-0.007,0.343-0.01,0.515-0.01l0,0c5.543,0,10.936,1.861,15.255,5.335c5.605,4.509,12.784,8.151,20.48,7.206
	c15.327-1.881,14.875-12.005,20.48-16.513c4.319-3.474,9.713-5.335,15.255-5.335h0.239c7.084,0,12.616-2.646,12.626,4.44
	c0.007,4.77,3.764,26.534,8.534,26.641c2.489,0.056,4.753-0.93,6.376-2.557c1.58-1.58-0.43-3.763-0.43-6.176l-2.149-8.054"/>
<path style="fill:#C98847;" d="M150.961,60.999v29.672c0,2.412-0.977,4.596-2.556,6.176c-1.624,1.628-3.888,2.613-6.376,2.556
	c-4.775-0.107-8.534-4.133-8.534-8.908v-4.485c0-3.554-1.44-6.767-3.768-9.096s-5.543-3.768-9.096-3.768
	c-5.543,0-10.935,1.861-15.257,5.336c-5.602,4.507-12.724,7.206-20.48,7.206c-7.753,0-14.874-2.7-20.477-7.206
	c-0.74-0.597-1.514-1.144-2.314-1.642c-0.009-0.009-0.021-0.014-0.03-0.021c-1.523-0.95-3.142-1.72-4.826-2.308
	c-2.586-0.898-5.318-1.365-8.092-1.365c-7.101,0-12.859,5.767-12.859,12.871v4.659c0,2.41-0.977,4.596-2.559,6.176
	c-1.58,1.58-3.763,2.556-6.176,2.556c-4.823,0-8.732-3.909-8.732-8.735V60.999c0-25.981,21.059-47.043,47.04-47.043h38.051
	C129.899,13.956,150.961,35.018,150.961,60.999z"/>
<path style="fill:#E5BFA3;" d="M72.109,107.069c-0.328,2.715-2.724,4.707-5.459,4.707H52.44c-1.484,0-2.828-0.6-3.801-1.574
	c-1.114-1.117-1.744-2.723-1.534-4.47c0.328-2.715,2.724-4.707,5.459-4.707h14.21c1.484,0,2.828,0.6,3.801,1.574
	C71.69,103.718,72.32,105.324,72.109,107.069z"/>
<path style="fill:#FFFFFF;" d="M72.109,110.839c-0.328,2.715-2.724,4.707-5.459,4.707H52.44c-1.484,0-2.828-0.6-3.801-1.574
	c-1.114-1.117-1.744-2.723-1.534-4.47c0.328-2.715,2.724-4.707,5.459-4.707h14.21c1.484,0,2.828,0.6,3.801,1.574
	C71.69,107.488,72.32,109.093,72.109,110.839z"/>
<path style="fill:#E5BFA3;" d="M121.124,101.027h-14.333c-2.969,0-5.375,2.406-5.375,5.375l0,0c0,2.969,2.406,5.375,5.375,5.375
	h14.333c2.969,0,5.375-2.406,5.375-5.375l0,0C126.499,103.433,124.093,101.027,121.124,101.027z"/>
<path style="fill:#FFFFFF;" d="M121.124,104.796h-14.333c-2.969,0-5.375,2.406-5.375,5.375l0,0c0,2.969,2.406,5.375,5.375,5.375
	h14.333c2.969,0,5.375-2.406,5.375-5.375l0,0C126.499,107.203,124.093,104.796,121.124,104.796z"/>
<path style="fill:#E5BFA3;" d="M125.773,90.289h-23.632c-1.673,0-3.03,1.356-3.03,3.03l0,0c0,1.673,1.356,3.03,3.03,3.03h23.633
	c1.673,0,3.03-1.356,3.03-3.03l0,0C128.803,91.645,127.446,90.289,125.773,90.289z"/>
<g>
	<path style="fill:#5C5E70;" d="M66.756,108.397c0,3.948-3.201,7.149-7.149,7.149s-7.149-3.201-7.149-7.149
		c0-1.314,0.355-2.545,0.977-3.601h12.345C66.401,105.853,66.756,107.084,66.756,108.397z"/>
	<path style="fill:#5C5E70;" d="M121.106,108.397c0,3.948-3.201,7.149-7.149,7.149c-3.948,0-7.149-3.201-7.149-7.149
		c0-1.314,0.355-2.545,0.977-3.601h12.345C120.751,105.853,121.106,107.084,121.106,108.397z"/>
</g>
<g>
	<path style="fill:#E5BFA3;" d="M47.891,90.289c-1.668,0-3.099,1.305-3.129,2.973c-0.031,1.699,1.337,3.087,3.029,3.087h16.603
		c6.592,0,11.936,5.344,11.936,11.936v29.573h3.008c3.863,0,6.997-3.132,6.997-6.997V99.403c0-5.034-4.081-9.116-9.116-9.116H47.891
		V90.289z"/>
	<path style="fill:#E5BFA3;" d="M94.997,147.756c-6.561,2.162-13.648,2.162-20.209,0c-1.753-0.573-3.756,0.11-4.536,1.755l0,0
		c-0.779,1.634,0.298,3.768,2.481,4.486c7.896,2.602,16.424,2.602,24.32,0c2.183-0.716,3.259-2.852,2.481-4.486l0,0
		C98.754,147.869,96.752,147.184,94.997,147.756z"/>
	<path style="fill:#E5BFA3;" d="M88.451,160.938h-7.115c-1.814,0-3.285,1.471-3.285,3.285l0,0c0,1.814,1.471,3.285,3.285,3.285
		h7.115c1.814,0,3.285-1.471,3.285-3.285l0,0C91.736,162.409,90.265,160.938,88.451,160.938z"/>
</g>
<polygon style="fill:#E8DBC4;" points="97.718,299.357 72.069,299.357 80.786,219.382 88.998,219.382 "/>
<path style="fill:#D6C8B0;" d="M87.828,221.472h-5.869c-3.492,0-6.323-2.831-6.323-6.323v-7.661c0-3.492,2.831-6.323,6.323-6.323
	h5.869c3.492,0,6.323,2.831,6.323,6.323v7.661C94.151,218.641,91.32,221.472,87.828,221.472z"/>
<g>
	<path style="fill:#EF4152;" d="M55.789,185.11L81.898,196.3c2.691,1.154,3.794,4.381,2.372,6.94l-8.455,15.22
		c-1.64,2.953-5.694,3.425-7.969,0.929l-21.518-23.599c-1.984-2.176-1.636-5.592,0.745-7.324l3.863-2.81
		C52.344,184.632,54.188,184.424,55.789,185.11z"/>
	<path style="fill:#EF4152;" d="M113.998,185.11L87.889,196.3c-2.691,1.154-3.794,4.381-2.372,6.94l8.456,15.22
		c1.64,2.953,5.694,3.425,7.969,0.929l21.518-23.599c1.984-2.176,1.636-5.592-0.745-7.324l-3.863-2.81
		C117.442,184.632,115.599,184.424,113.998,185.11z"/>
</g>
<rect x="360.508" y="59.722" style="fill:#494B5B;" width="127.209" height="169.757"/>
<rect x="401.517" y="167.144" style="fill:#F9D6B9;" width="52.906" height="34.017"/>
<path style="fill:#E5BFA3;" d="M415.467,167.146L415.467,167.146h-13.949l0,0h-0.001v14.385h0.001v14.233h13.949l0,0
	c0-4.819,4.013-8.693,8.827-8.467c0.93,0.043,1.866,0.066,2.808,0.066c9.86,0,19.157-2.425,27.324-6.707v-13.51h-38.959V167.146z"/>
<path style="fill:#F9D6B9;" d="M480.552,63.2l-106.901-6.272v65.71c0,32.53,23.931,58.902,53.451,58.902l0,0
	c29.52,0,53.451-26.371,53.451-58.902V63.2H480.552z"/>
<g>
	<path style="fill:#E5BFA3;" d="M387.878,122.639V57.764l-14.227-0.834v65.71c0,32.53,23.931,58.902,53.451,58.902l0,0
		c2.412,0,4.786-0.18,7.113-0.52C408.058,177.186,387.878,152.512,387.878,122.639z"/>
	<path style="fill:#E5BFA3;" d="M396.185,79.781c0,0,33.267,10.593,64.863,6.688c31.597-3.905-5.58-24.956-5.58-24.956
		l-53.751-3.584l-7.614,3.584"/>
	<path style="fill:#E5BFA3;" d="M467.982,91.782H444.35c-1.673,0-3.03,1.356-3.03,3.03l0,0c0,1.673,1.356,3.03,3.03,3.03h23.633
		c1.673,0,3.03-1.356,3.03-3.03l0,0C471.011,93.138,469.655,91.782,467.982,91.782z"/>
	<path style="fill:#E5BFA3;" d="M390.1,91.782c-1.668,0-3.099,1.305-3.129,2.973c-0.031,1.699,1.337,3.087,3.029,3.087h16.603
		c6.592,0,11.936,5.344,11.936,11.936v23.601h3.008c3.863,0,6.997-3.132,6.997-6.997v-25.485c0-5.034-4.081-9.116-9.116-9.116H390.1
		V91.782z"/>
</g>
<path style="fill:#FF6E7C;" d="M434.883,150.166c-5.081,1.478-10.481,1.478-15.562,0c-1.36-0.391-2.869,0.215-3.407,1.51l0,0
	c-0.538,1.29,0.333,2.877,1.991,3.358c6.006,1.747,12.388,1.747,18.394,0c1.659-0.481,2.529-2.069,1.991-3.358l0,0
	C437.752,150.381,436.243,149.775,434.883,150.166z"/>
<path style="fill:#E5BFA3;" d="M429.847,158.768h-5.491c-1.4,0-2.535,1.135-2.535,2.535l0,0c0,1.4,1.135,2.535,2.535,2.535h5.491
	c1.4,0,2.535-1.135,2.535-2.535l0,0C432.382,159.903,431.247,158.768,429.847,158.768z"/>
<path style="fill:#5C5E70;" d="M498.866,71.934V213.08l-15.232-7.197c0,0,0-51.901,0-66.662c0-14.762,6.704-52.131-34.506-54.819
	c-21.166-1.38-36.582-10.088-46.571-18.231c-0.003,0.012-0.009,0.048-0.021,0.107c0,0.003,0,0.003,0,0.003
	c-0.338,1.816-5.252,25.135-34.333,27.552v115.796l-12.844,6.767V71.934c0-31.95,20.882-59.02,49.746-68.308h0.003
	c6.932-2.234,14.323-3.437,21.997-3.437h0.018C466.745,0.19,498.866,32.31,498.866,71.934z"/>
<path style="fill:#494B5B;" d="M249.598,25.477c-13.394,0-24.258,10.864-24.258,24.258v23.752c-1.652-0.351-3.356-0.527-5.081-0.527
	c-7.105,0-12.857,5.763-12.857,12.868v15.129c0,2.406-0.981,4.596-2.561,6.176c-1.58,1.58-3.769,2.551-6.176,2.551
	c-4.823,0-8.737-3.904-8.737-8.737V49.735c0-13.394,10.864-24.258,24.258-24.258H249.598z"/>
<path style="fill:#BA773A;" d="M101.28,13.776c-25.983,0-47.04,21.057-47.04,47.04v12.671c-1.663-0.351-3.367-0.527-5.091-0.527
	c-7.095,0-12.857,5.763-12.857,12.868v4.658c0,2.417-0.971,4.596-2.561,6.176c-1.58,1.58-3.759,2.561-6.176,2.561
	c-4.823,0-8.726-3.914-8.726-8.737v-29.67c0-25.983,21.057-47.04,47.04-47.04H101.28z"/>
<path style="fill:#494B5B;" d="M444.811,2.2c-1.456,0.372-2.881,0.785-4.296,1.239c-28.864,9.294-49.746,36.362-49.746,68.314
	v13.436c-5.102,4.172-12.341,7.611-22.565,8.458v115.798l-12.847,6.764V71.753c0-5.99,0.733-11.814,2.117-17.37
	c5.99-24.103,24.176-43.394,47.629-50.944c3.47-1.115,7.043-1.972,10.72-2.561C419.5,0.299,423.259,0,427.1,0h0.021
	C433.224,0,439.152,0.764,444.811,2.2z"/>
<path style="fill:#F9EED7;" d="M509.015,258.985c0,13.745-1.095,27.222-3.212,40.369H341.551v-70.338
	c0-5.484,3.077-10.503,7.973-12.981l39.883-20.241l35.133,5.277l7.787,1.291v5.37l32.468-11.938l39.883,20.241
	c0.269,0.134,0.527,0.279,0.775,0.423C507.796,230.286,509.015,244.496,509.015,258.985z"/>
<path style="fill:#E8DBC4;" d="M409.409,197.582l-9.552-1.792l-39.884,20.241c-4.889,2.482-7.97,7.499-7.97,12.984v70.342h-10.452
	v-70.342c0-5.486,3.082-10.503,7.97-12.984l39.884-20.241l14.927-4.829L409.409,197.582z"/>
<rect x="422.027" y="200.273" style="fill:#FCF8F2;" width="10.154" height="99.089"/>
<path style="fill:#F9EED7;" d="M434.494,200.469h-12.269v0.998l-0.199-0.086v15.848l4.452-8.015
	c0.424-0.761,0.624-1.585,0.624-2.395c0,0.81,0.2,1.631,0.624,2.395l4.452,8.015v-10.41h2.314v-6.35H434.494z"/>
<g>
	<path style="fill:#FCF8F2;" d="M397.998,185.11l26.109,11.189c2.691,1.154,3.794,4.381,2.372,6.94l-8.456,15.22
		c-1.64,2.953-5.694,3.425-7.969,0.929l-21.518-23.599c-1.984-2.176-1.636-5.592,0.745-7.324l3.863-2.81
		C394.554,184.632,396.397,184.424,397.998,185.11z"/>
	<path style="fill:#FCF8F2;" d="M456.207,185.11L430.098,196.3c-2.691,1.154-3.794,4.381-2.372,6.94l8.456,15.22
		c1.64,2.953,5.694,3.425,7.969,0.929l21.518-23.599c1.984-2.176,1.636-5.592-0.745-7.324l-3.863-2.81
		C459.65,184.632,457.807,184.424,456.207,185.11z"/>
</g>
<g>
	<circle style="fill:#5C5E70;" cx="427.097" cy="212.366" r="3.285"/>
	<circle style="fill:#5C5E70;" cx="427.097" cy="238.742" r="3.285"/>
	<circle style="fill:#5C5E70;" cx="427.097" cy="265.117" r="3.285"/>
	<circle style="fill:#5C5E70;" cx="427.097" cy="291.503" r="3.285"/>
</g>
<path style="fill:#FFFFFF;" d="M468.707,110.947c0,2.575-2.084,4.662-4.659,4.662h-15.764c-1.287,0-2.452-0.523-3.294-1.365
	c-0.845-0.845-1.364-2.01-1.364-3.296c0-0.792,0.197-1.538,0.546-2.191c0.784-1.467,0.991-3.807,2.773-3.807l18.158-0.241
	c1.287,0,2.291,2.727,2.563,1.568c0.323-1.377,0.277,2.072,0.495,2.48C468.509,109.409,468.707,110.155,468.707,110.947z"/>
<path style="fill:#34ABE0;" d="M463.313,109.891c0,2.338-1.123,4.417-2.861,5.719h-8.577c-1.738-1.302-2.861-3.38-2.861-5.719
	c0-1.314,0.355-2.545,0.977-3.601l6.557-1.163l5.789,1.163C462.958,107.346,463.313,108.576,463.313,109.891z"/>
<path style="fill:#5C5E70;" d="M448.284,106.289h15.764c1.287,0,2.452,0.523,3.294,1.365c0.323,0.323,0.599,0.695,0.817,1.103
	c0.348-0.712,0.549-1.509,0.549-2.355c0-2.969-2.406-5.375-5.375-5.375h-14.333c-2.969,0-5.375,2.406-5.375,5.375
	c0,0.846,0.2,1.643,0.549,2.356C444.957,107.289,446.503,106.289,448.284,106.289z"/>
<path style="fill:#FFFFFF;" d="M414.481,110.947c0,2.575-2.084,4.662-4.659,4.662h-15.764c-1.287,0-2.452-0.523-3.293-1.365
	c-0.845-0.845-1.365-2.01-1.365-3.296c0-0.792,0.197-1.538,0.546-2.191c0.784-1.467,0.991-3.807,2.773-3.807l18.158-0.241
	c1.287,0,2.291,2.727,2.563,1.568c0.323-1.377,0.277,2.072,0.494,2.48C414.282,109.408,414.481,110.155,414.481,110.947z"/>
<path style="fill:#34ABE0;" d="M409.087,109.891c0,2.338-1.123,4.417-2.861,5.719h-8.577c-1.738-1.302-2.861-3.38-2.861-5.719
	c0-1.314,0.355-2.545,0.977-3.601l6.557-1.163l5.788,1.163C408.732,107.346,409.087,108.576,409.087,109.891z"/>
<g>
	<path style="fill:#5C5E70;" d="M394.057,106.289h15.764c1.287,0,2.452,0.523,3.294,1.365c0.323,0.323,0.599,0.695,0.817,1.103
		c0.348-0.712,0.549-1.509,0.549-2.355c0-2.969-2.406-5.375-5.375-5.375h-14.333c-2.969,0-5.375,2.406-5.375,5.375
		c0,0.846,0.2,1.643,0.549,2.356C390.73,107.289,392.276,106.289,394.057,106.289z"/>
	<path style="fill:#5C5E70;" d="M506.547,294.376c-0.227,1.663-0.475,3.325-0.744,4.978c-8.85,55.229-35.587,104.5-74.087,141.667
		c-45.512,43.942-107.453,70.978-175.716,70.978s-130.204-27.036-175.716-70.978c-38.499-37.167-65.236-86.438-74.087-141.667
		c-0.269-1.652-0.516-3.315-0.744-4.978H506.547z"/>
</g>
<g>
	<path style="fill:#FCF8F2;" d="M139.867,335.911c3.907,0,5.565,4.262,5.565,8.169c0,4.498-2.013,8.406-5.565,8.406h-16.337v64.285
		c0,3.788-4.617,5.682-9.233,5.682c-4.616,0-9.233-1.894-9.233-5.682v-64.285H88.725c-3.551,0-5.565-3.907-5.565-8.406
		c0-3.907,1.658-8.169,5.565-8.169H139.867z"/>
	<path style="fill:#FCF8F2;" d="M194.915,372.019h17.757c3.551,0,5.565,3.434,5.565,7.222c0,3.196-1.658,6.985-5.565,6.985h-17.757
		v20.126h31.728c3.551,0,5.565,3.788,5.565,8.169c0,3.789-1.657,7.932-5.565,7.932h-42.146c-4.025,0-8.052-1.894-8.052-5.682
		v-75.177c0-3.789,4.025-5.683,8.052-5.683h42.146c3.907,0,5.565,4.143,5.565,7.932c0,4.381-2.013,8.169-5.565,8.169h-31.728
		V372.019z"/>
	<path style="fill:#FCF8F2;" d="M258.013,414.876c0-0.355,0.117-0.828,0.236-1.302l22.019-72.217
		c1.303-4.144,6.63-6.156,12.075-6.156s10.773,2.013,12.075,6.156l22.139,72.217c0.119,0.474,0.238,0.947,0.238,1.302
		c0,4.381-6.749,7.577-11.84,7.577c-2.959,0-5.327-0.947-6.037-3.434l-4.026-14.799h-24.98l-4.023,14.799
		c-0.712,2.487-3.08,3.434-6.039,3.434C264.759,422.453,258.013,419.256,258.013,414.876z M300.988,390.014l-8.643-31.728
		l-8.643,31.728H300.988z"/>
	<path style="fill:#FCF8F2;" d="M399.01,391.79c-1.539,2.604-3.907,3.434-6.158,3.434c-2.13,0-4.379-0.71-5.801-3.434
		l-11.247-20.599v45.581c0,3.788-4.617,5.682-9.233,5.682c-4.616,0-9.233-1.894-9.233-5.682v-71.626
		c0-6.749,4.617-9.234,9.233-9.234c6.63,0,9.472,0.711,14.325,9.234l12.195,21.31l12.193-21.31
		c4.855-8.524,7.697-9.234,14.327-9.234c4.734,0,9.233,2.486,9.233,9.234v71.626c0,3.788-4.617,5.682-9.233,5.682
		c-4.619,0-9.236-1.894-9.236-5.682v-44.396L399.01,391.79z"/>
</g>
<g>
</g>
<g>
</g>
<g>
</g>
<g>
</g>
<g>
</g>
<g>
</g>
<g>
</g>
<g>
</g>
<g>
</g>
<g>
</g>
<g>
</g>
<g>
</g>
<g>
</g>
<g>
</g>
<g>
</g>
</svg>
