<?xml version="1.0"?>
<svg xmlns="http://www.w3.org/2000/svg" xmlns:xlink="http://www.w3.org/1999/xlink" version="1.1" id="Capa_1" x="0px" y="0px" viewBox="0 0 512 512" style="enable-background:new 0 0 512 512;" xml:space="preserve" width="512px" height="512px" class=""><g><circle style="fill:#FFD05B" cx="256" cy="256" r="256" data-original="#55CEED" class="" data-old_color="#ffd05b"/><path style="fill:#E8F7F9;" d="M92.64,305.34c15.91-0.008,15.914-13.523,31.833-13.523c0.005,0,0.01,0.001,0.016,0.001l0.016-0.001  c15.919,0,15.925,13.513,31.832,13.523c15.917-0.009,15.891-13.523,31.864-13.523c15.919,0,15.923,13.515,31.833,13.523  c12.03-0.008,14.99-7.717,22.592-11.484c0.734-19.071-1.507-37.152-6.892-54.351c-0.525-1.677-2.073-2.823-3.83-2.823  c-8.869,0-142.196,0-151.134,0c-1.758,0-3.305,1.146-3.831,2.823c-6.198,19.795-7.704,38.351-6.955,54.32  C77.634,297.579,80.577,305.332,92.64,305.34z" data-original="#E8F7F9"/><path style="fill:#C3F1FC;" d="M76.934,239.523c-8.885,28.388-6.788,50.443-6.949,54.301c7.65,3.755,10.593,11.508,22.656,11.515  c12.923-0.006,15.352-8.924,24.34-12.272c-0.666-15.797,0.892-34.08,6.991-53.563c0.525-1.677,2.073-2.823,3.831-2.823  c-50.02,0-47.18-0.029-47.68,0.052C77.557,237.153,76.866,239.624,76.934,239.523z" data-original="#C3F1FC" class=""/><path style="fill:#BB3084" d="M230.539,347.742L230.539,347.742c7.513-18.757,11.599-34.895,12.16-55.998  c-7.659,3.753-10.596,11.516-22.665,11.523c-15.919-0.008-15.892-13.523-31.864-13.523c-15.919,0-15.925,13.513-31.832,13.523  c-15.908-0.009-15.913-13.523-31.832-13.523l-0.016,0.001c-0.005,0-0.01-0.001-0.016-0.001c-15.919,0-15.923,13.515-31.833,13.523  c-12.109-0.008-15.025-7.822-22.741-11.561c1.53,45.381,20.607,80.159,43.375,98.221l0,0c46.007,35.814,85.868,0.094,86.127,0l0,0  C212.211,379.764,222.95,365.202,230.539,347.742z" data-original="#FDD36E" class="" data-old_color="#BB3184"/><path style="fill:#FF00F9" d="M160.338,390.744L160.338,390.744c-12.916-10.246-23.742-24.927-31.393-42.529  c-0.057-0.263-11.336-23.272-12.356-57.061c-8.665,3.459-11.219,12.108-23.949,12.114c-12.109-0.008-15.025-7.822-22.741-11.561  c1.53,45.381,20.607,80.159,43.375,98.221l0,0c25.668,19.981,49.413,17.692,65.445,11.75  C172.759,399.166,166.607,395.624,160.338,390.744z" data-original="#FBB659" class="active-path" data-old_color="#FC00FF"/><path style="fill:#E8F7F9;" d="M172.125,403.076c-11.312,0-20.305,0-31.661,0v81.419c10.707,5.425,21.841,10.128,33.348,14.026  C170.837,491.082,172.71,493.093,172.125,403.076z" data-original="#E8F7F9"/><g>
	<path style="fill:#C3F1FC;" d="M140.464,403.076c0,12.276,0,71.584,0,81.419c5.148,2.608,10.391,5.055,15.732,7.318   c0.168-2.606,0.058,2.219,0.092-88.737C150.426,403.076,146.369,403.076,140.464,403.076z" data-original="#C3F1FC" class=""/>
	<path style="fill:#C3F1FC;" d="M175.131,399.045c-0.181,0-39.701,0-37.686,0c-10.833,0-14.662,14.604-5.031,19.836   c1.496,0.813,3.21,1.274,5.031,1.274c0.351,0,5.137,0,4.887,0c11.129,0,23.118,0,32.799,0c5.83,0,10.555-4.726,10.555-10.555   S180.961,399.045,175.131,399.045z" data-original="#C3F1FC" class=""/>
</g><path style="fill:#A5E5F9;" d="M166.844,399.045c-1.99,0-31.063,0-29.398,0c-10.832,0-14.663,14.604-5.031,19.836  c1.496,0.813,3.21,1.274,5.031,1.274c0.351,0,5.137,0,4.887,0c8.817,0,15.723,0,24.511,0c-1.822,0-3.536-0.462-5.031-1.274  C152.261,413.693,155.887,399.045,166.844,399.045z" data-original="#A5E5F9" class=""/><path style="fill:#BB3084" d="M392.093,235.28c-11.462-9.184-18.363-22.893-18.364-37.581v-62.083h-55.96v62.083  c-0.001,14.688-6.902,28.396-18.365,37.581c-19.372,15.528-31.689,39.31-31.689,65.657c0.217,218.655-0.453,206.11,0.573,210.764  c59.37-2.806,113.447-25.83,155.495-62.348V300.937C423.783,275.516,412.182,251.383,392.093,235.28z" data-original="#FDD36E" class="" data-old_color="#BB3184"/><path style="fill:#FF00F9" d="M276.646,511.155c1.438-0.114,2.873-0.239,4.304-0.377c0.771-0.075,1.54-0.152,2.31-0.234  c1.39-0.147,2.776-0.308,4.16-0.477c0.72-0.088,1.44-0.171,2.158-0.265c1.866-0.244,3.726-0.508,5.579-0.792  c0.179-0.027,0.359-0.05,0.538-0.078c0-221.124-5.502-226.004,20.935-256.105c3.298-3.758,6.941-7.237,10.755-10.292  c11.462-9.185,18.363-22.893,18.365-37.581v-69.337h-27.98V197.7l0,0c0,2.754-0.243,5.473-0.713,8.135  c-0.157,0.887-0.339,1.768-0.545,2.642c-1.652,6.988-4.884,13.51-9.401,19.123c-0.565,0.701-1.149,1.389-1.754,2.061  c-1.813,2.017-3.802,3.898-5.951,5.62c-0.033,0.027-0.065,0.054-0.098,0.081c-0.58,0.467-1.154,0.939-1.72,1.419  c-0.342,0.29-0.676,0.588-1.013,0.883c-0.248,0.217-0.5,0.43-0.744,0.65c-0.45,0.402-0.891,0.813-1.332,1.225  c-0.124,0.116-0.251,0.229-0.374,0.346c-0.517,0.49-1.028,0.987-1.533,1.49c-0.04,0.039-0.08,0.077-0.119,0.117  c-3.83,3.826-7.291,8.012-10.329,12.499l0,0c-0.413,0.61-0.816,1.226-1.213,1.846c-0.028,0.043-0.056,0.086-0.084,0.13  c-0.365,0.574-0.722,1.154-1.074,1.737c-0.057,0.095-0.116,0.189-0.173,0.284c-0.316,0.529-0.624,1.063-0.929,1.598  c-0.089,0.156-0.179,0.311-0.267,0.467c-0.266,0.475-0.525,0.955-0.782,1.436c-0.119,0.223-0.241,0.445-0.358,0.669  c-0.218,0.417-0.429,0.838-0.641,1.258c-0.148,0.294-0.297,0.587-0.441,0.882c-0.172,0.353-0.338,0.709-0.506,1.065  c-0.174,0.369-0.348,0.737-0.516,1.109c-0.13,0.288-0.256,0.578-0.383,0.868c-0.194,0.442-0.388,0.884-0.575,1.33  c-0.094,0.225-0.184,0.452-0.277,0.679c-0.209,0.512-0.417,1.025-0.616,1.541c-0.064,0.165-0.125,0.333-0.187,0.499  c-0.219,0.578-0.434,1.157-0.639,1.74c-0.039,0.11-0.076,0.221-0.114,0.332c-0.222,0.638-0.439,1.277-0.646,1.92  c-0.02,0.063-0.039,0.126-0.059,0.189c-0.22,0.69-0.432,1.382-0.634,2.077c-0.006,0.022-0.012,0.044-0.019,0.066  c-0.862,2.978-1.561,6.009-2.088,9.081c-0.002,0.009-0.003,0.018-0.004,0.027c-0.13,0.759-0.25,1.521-0.359,2.285  c-0.007,0.051-0.013,0.103-0.02,0.154c-0.102,0.722-0.196,1.445-0.279,2.171c-0.014,0.122-0.024,0.245-0.038,0.367  c-0.072,0.657-0.14,1.316-0.197,1.976c-0.02,0.225-0.032,0.452-0.049,0.677c-0.044,0.561-0.088,1.122-0.12,1.685  c-0.023,0.404-0.036,0.81-0.053,1.214c-0.017,0.39-0.039,0.779-0.05,1.17c-0.023,0.804-0.035,1.611-0.035,2.42  c0.061,61.495,0.052,104.703,0.03,135.15c0,0.001,0,0.002,0,0.004c-0.002,3.382-0.005,6.606-0.008,9.68  c-0.001,1.538-0.002,3.039-0.004,4.504c-0.002,2.195-0.004,4.307-0.006,6.341c0,0.001,0,0.003,0,0.004  c-0.001,1.355-0.003,2.674-0.004,3.96c-0.003,3.219-0.007,6.223-0.01,9.029c-0.002,2.243-0.005,4.358-0.007,6.354  c-0.003,2.497-0.005,4.806-0.006,6.944c0,0.428-0.001,0.848-0.001,1.262c-0.001,0.827-0.001,1.628-0.001,2.402  c-0.001,1.162-0.001,2.265-0.001,3.312c0,0.349,0,0.692,0,1.029c0,2.358,0.002,4.418,0.005,6.223c0,0.258,0.001,0.51,0.002,0.758  c0.001,0.495,0.002,0.969,0.004,1.424c0.001,0.227,0.002,0.45,0.003,0.668c0.001,0.436,0.003,0.853,0.005,1.251  c0.001,0.199,0.002,0.394,0.003,0.585c0.002,0.381,0.005,0.744,0.007,1.091c0.003,0.347,0.005,0.677,0.008,0.991  c0.004,0.471,0.009,0.907,0.015,1.311c0.002,0.135,0.004,0.266,0.006,0.393c0.004,0.255,0.008,0.497,0.012,0.725  c0.011,0.572,0.023,1.063,0.037,1.488c0.011,0.34,0.023,0.639,0.037,0.903c0.02,0.396,0.043,0.715,0.068,0.982  c0.008,0.089,0.017,0.172,0.026,0.251c0.086,0.745,0.201,1.057,0.353,1.748c2.116-0.1,4.224-0.233,6.326-0.384  C275.293,511.268,275.969,511.209,276.646,511.155z" data-original="#FBB659" class="active-path" data-old_color="#FC00FF"/><rect x="317.77" y="63.43" style="fill:#FA6487;" width="55.96" height="41.644" data-original="#FA6487"/><rect x="317.77" y="63.43" style="fill:#E64B78;" width="27.98" height="41.644" data-original="#E64B78"/><path style="fill:#F98FB0;" d="M374.27,71.22h-57.042c-6.84,0-12.436-5.596-12.436-12.436V12.436c0-6.84,5.596-12.436,12.436-12.436  h57.042c6.84,0,12.436,5.596,12.436,12.436v46.348C386.706,65.624,381.109,71.22,374.27,71.22z" data-original="#F98FB0"/><path style="fill:#FA6487;" d="M345.749,58.784V12.436c0-6.84,5.596-12.436,12.436-12.436h-40.957  c-6.84,0-12.436,5.596-12.436,12.436v46.348c0,6.839,5.596,12.435,12.436,12.435h40.957  C351.345,71.219,345.749,65.623,345.749,58.784z" data-original="#FA6487"/><path style="fill:#28B49B;" d="M393.791,236.681h-96.085c-19.553,16.593-29.991,40.099-29.991,64.256v162.569h138.212  c6.162-4.459,12.125-9.176,17.856-14.154V300.937C423.783,276.421,413.032,252.972,393.791,236.681z" data-original="#28B49B" class=""/><g>
	<path style="fill:#1EA087;" d="M316.629,252.826c7.847-8.947,11.398-9.944,16.904-16.145h-35.828   c-19.124,16.222-29.991,39.536-29.991,64.256v162.569h27.98C295.718,295.627,290.166,282.957,316.629,252.826z" data-original="#1EA087" class=""/>
	<path style="fill:#1EA087;" d="M267.715,318.584v79.935c17.386,17.459,45.858,28.84,78.034,28.84s60.648-11.381,78.034-28.84   v-79.935c-17.386-17.459-45.858-28.84-78.034-28.84S285.1,301.125,267.715,318.584z" data-original="#1EA087" class=""/>
</g><path style="fill:#198773;" d="M296.139,299.667c-11.171,4.86-20.85,11.311-28.424,18.917v79.935  c7.473,7.504,16.997,13.881,27.98,18.718C295.717,305.185,295.479,306.119,296.139,299.667z" data-original="#198773" class=""/><circle style="fill:#C3F1FC;" cx="345.75" cy="358.55" r="28.25" data-original="#C3F1FC" class=""/><path style="fill:#A5E5F9;" d="M345.749,358.552c-5.228-9.054-4.866-19.795,0.002-28.247c-4.802-0.005-9.669,1.208-14.127,3.781  c-13.512,7.801-18.142,25.079-10.34,38.591c7.801,13.512,25.079,18.142,38.591,10.341c4.458-2.574,7.942-6.183,10.338-10.344  C360.459,372.664,350.976,367.606,345.749,358.552z" data-original="#A5E5F9" class=""/><path style="fill:#505E93;" d="M373.729,139.152v-34.08h-55.96v34.08l20.564,10.657c4.65,2.41,10.181,2.41,14.831,0L373.729,139.152  z" data-original="#505E93" class=""/><path style="fill:#474F70;" d="M317.769,105.072v34.08l20.564,10.657c2.325,1.205,4.87,1.807,7.415,1.807v-46.544L317.769,105.072  L317.769,105.072z" data-original="#474F70"/></g> </svg>
